<svg width="20" height="20" viewBox="0 0 20 20" fill="none" xmlns="http://www.w3.org/2000/svg">
<path d="M10.0001 0C6.00613 0 2.75684 3.2493 2.75684 7.2432C2.75684 12.1998 9.23883 19.4763 9.5148 19.7836C9.77402 20.0723 10.2266 20.0718 10.4854 19.7836C10.7613 19.4763 17.2433 12.1998 17.2433 7.2432C17.2432 3.2493 13.994 0 10.0001 0ZM10.0001 18.3488C7.81855 15.7575 4.06121 10.645 4.06121 7.24328C4.06121 3.96852 6.72535 1.30438 10.0001 1.30438C13.2748 1.30438 15.9389 3.96852 15.9389 7.24324C15.9389 10.6451 12.1821 15.7566 10.0001 18.3488Z" fill="#FF7802"/>
<path d="M10.0002 3.59912C7.99072 3.59912 6.35596 5.23393 6.35596 7.24338C6.35596 9.25283 7.99076 10.8876 10.0002 10.8876C12.0096 10.8876 13.6443 9.25283 13.6443 7.24338C13.6443 5.23393 12.0096 3.59912 10.0002 3.59912ZM10.0002 9.58326C8.70994 9.58326 7.66033 8.53361 7.66033 7.24338C7.66033 5.95314 8.70998 4.9035 10.0002 4.9035C11.2904 4.9035 12.34 5.95314 12.34 7.24338C12.34 8.53361 11.2904 9.58326 10.0002 9.58326Z" fill="#FF7802"/>
</svg>
