<svg width="28" height="28" viewBox="0 0 28 28" fill="none" xmlns="http://www.w3.org/2000/svg">
<path d="M9.0213 18.1018H9.02258C9.02365 18.1018 9.02472 18.1016 9.02579 18.1016H23.8984C24.2646 18.1016 24.5865 17.8587 24.6871 17.5066L27.9684 6.02225C28.0391 5.77466 27.9895 5.50848 27.8347 5.30298C27.6796 5.09747 27.4371 4.97656 27.1797 4.97656H7.12946L6.54306 2.33768C6.45953 1.96234 6.12671 1.69531 5.74219 1.69531H0.820313C0.367218 1.69531 0 2.06253 0 2.51562C0 2.96872 0.367218 3.33594 0.820313 3.33594H5.08423C5.18805 3.80356 7.89038 15.9643 8.0459 16.6639C7.1741 17.0428 6.5625 17.9121 6.5625 18.9219C6.5625 20.2788 7.6665 21.3828 9.02344 21.3828H23.8984C24.3515 21.3828 24.7188 21.0156 24.7188 20.5625C24.7188 20.1094 24.3515 19.7422 23.8984 19.7422H9.02344C8.5712 19.7422 8.20313 19.3741 8.20313 18.9219C8.20313 18.4703 8.56992 18.1028 9.0213 18.1018ZM26.0921 6.61719L23.2796 16.4609H9.6814L7.4939 6.61719H26.0921Z" fill="#FF7802"/>
<path d="M8.20312 23.8438C8.20312 25.2007 9.30713 26.3047 10.6641 26.3047C12.021 26.3047 13.125 25.2007 13.125 23.8438C13.125 22.4868 12.021 21.3828 10.6641 21.3828C9.30713 21.3828 8.20312 22.4868 8.20312 23.8438ZM10.6641 23.0234C11.1163 23.0234 11.4844 23.3915 11.4844 23.8438C11.4844 24.296 11.1163 24.6641 10.6641 24.6641C10.2118 24.6641 9.84375 24.296 9.84375 23.8438C9.84375 23.3915 10.2118 23.0234 10.6641 23.0234Z" fill="#FF7802"/>
<path d="M19.7969 23.8438C19.7969 25.2007 20.9009 26.3047 22.2578 26.3047C23.6147 26.3047 24.7188 25.2007 24.7188 23.8438C24.7188 22.4868 23.6147 21.3828 22.2578 21.3828C20.9009 21.3828 19.7969 22.4868 19.7969 23.8438ZM22.2578 23.0234C22.7101 23.0234 23.0781 23.3915 23.0781 23.8438C23.0781 24.296 22.7101 24.6641 22.2578 24.6641C21.8056 24.6641 21.4375 24.296 21.4375 23.8438C21.4375 23.3915 21.8056 23.0234 22.2578 23.0234Z" fill="#FF7802"/>
</svg>
