<svg width="28" height="28" viewBox="0 0 28 28" fill="none" xmlns="http://www.w3.org/2000/svg">
<path d="M14 0C6.28054 0 0 6.28054 0 14C0 21.7195 6.28054 28 14 28C21.7195 28 28 21.7195 28 14C28 6.28054 21.7195 0 14 0ZM14 26.25C7.24523 26.25 1.75001 20.7548 1.75001 14C1.75001 7.24523 7.24523 1.75001 14 1.75001C20.7548 1.75001 26.25 7.24523 26.25 14C26.25 20.7548 20.7548 26.25 14 26.25Z" fill="#FF7802"/>
<path d="M14.875 5.25003H13.125V14.3623L18.6313 19.8687L19.8686 18.6313L14.875 13.6377V5.25003Z" fill="#FF7802"/>
</svg>
