<svg width="60" height="60" viewBox="0 0 60 60" fill="none" xmlns="http://www.w3.org/2000/svg">
<path d="M12.1875 39.3779C10.6366 39.3779 9.375 40.6396 9.375 42.1904C9.375 43.7413 10.6366 45.0029 12.1875 45.0029C13.7384 45.0029 15 43.7413 15 42.1904C15 40.6396 13.7384 39.3779 12.1875 39.3779ZM12.1875 43.1279C11.6706 43.1279 11.25 42.7073 11.25 42.1904C11.25 41.6735 11.6706 41.2529 12.1875 41.2529C12.7044 41.2529 13.125 41.6735 13.125 42.1904C13.125 42.7073 12.7044 43.1279 12.1875 43.1279Z" fill="#FF7802"/>
<path d="M47.8125 39.3779C46.2616 39.3779 45 40.6396 45 42.1904C45 43.7413 46.2616 45.0029 47.8125 45.0029C49.3634 45.0029 50.625 43.7413 50.625 42.1904C50.625 40.6396 49.3634 39.3779 47.8125 39.3779ZM47.8125 43.1279C47.2956 43.1279 46.875 42.7073 46.875 42.1904C46.875 41.6735 47.2956 41.2529 47.8125 41.2529C48.3294 41.2529 48.75 41.6735 48.75 42.1904C48.75 42.7073 48.3294 43.1279 47.8125 43.1279Z" fill="#FF7802"/>
<path d="M59.0625 39.3779V32.9675C59.0625 31.3508 58.0321 29.9211 56.4983 29.41L53.209 28.3136L50.3277 21.1102C49.7549 19.6782 48.3882 18.7529 46.8459 18.7529H38.4375V14.0654C38.4375 12.5146 37.1759 11.2529 35.625 11.2529H3.75C2.19914 11.2529 0.9375 12.5146 0.9375 14.0654V39.3848C0.410977 39.4434 0 39.8907 0 40.4326V42.1904C0 43.7413 1.26164 45.0029 2.8125 45.0029H6.25945C8.63449 49.9885 15.7338 50.0025 18.1154 45.0029H41.8845C44.2595 49.9885 51.3588 50.0025 53.7404 45.0029H57.1875C58.7384 45.0029 60 43.7413 60 42.1904V40.3154C60 39.7976 59.5802 39.3779 59.0625 39.3779ZM46.8458 20.6279C47.617 20.6279 48.3004 21.0906 48.5868 21.8066L51.6295 29.4137C51.732 29.6698 51.942 29.8677 52.2035 29.9549L55.9053 31.1889C56.6722 31.4445 57.1874 32.1593 57.1874 32.9677V35.628H56.2499C55.7321 35.628 55.3124 36.0478 55.3124 36.5655C55.3124 37.0833 55.7321 37.503 56.2499 37.503H57.1874V39.378H53.7404C51.3654 34.3924 44.2661 34.3785 41.8845 39.378H38.4375V20.628H46.8458V20.6279ZM3.75 13.1279H35.625C36.1419 13.1279 36.5625 13.5485 36.5625 14.0654V39.3779H18.1155C15.7405 34.3923 8.64117 34.3784 6.25957 39.3779H2.8125V14.0654C2.8125 13.5485 3.23309 13.1279 3.75 13.1279ZM2.8125 43.1279C2.29559 43.1279 1.875 42.7073 1.875 42.1904V41.2529H5.69309C5.6025 41.8833 5.60238 42.4964 5.69309 43.1279H2.8125ZM12.1875 46.8779C10.2246 46.8779 8.54074 45.6647 7.84359 43.9491C7.82625 43.8093 7.77809 43.6792 7.70613 43.5654C7.43133 42.6716 7.43098 41.7103 7.70613 40.8153C7.77809 40.7016 7.82625 40.5716 7.84359 40.4317C8.54074 38.716 10.2246 37.5028 12.1875 37.5028C14.1504 37.5028 15.8343 38.716 16.5314 40.4317C16.5487 40.5715 16.5969 40.7016 16.6689 40.8153C16.9437 41.709 16.944 42.6704 16.6689 43.5654C16.5969 43.6792 16.5487 43.8091 16.5314 43.9491C15.8343 45.6646 14.1504 46.8779 12.1875 46.8779ZM18.6819 43.1279C18.7725 42.4976 18.7726 41.8844 18.6819 41.2529H41.318C41.2274 41.8833 41.2273 42.4964 41.318 43.1279H18.6819ZM47.8125 46.8779C45.8496 46.8779 44.1657 45.6647 43.4686 43.9491C43.4513 43.8093 43.4031 43.6792 43.3311 43.5654C43.0563 42.6716 43.056 41.7103 43.3311 40.8153C43.4031 40.7016 43.4513 40.5716 43.4686 40.4317C44.1657 38.716 45.8496 37.5028 47.8125 37.5028C49.7754 37.5028 51.4593 38.716 52.1564 40.4317C52.1737 40.5715 52.2219 40.7016 52.2939 40.8153C52.5687 41.709 52.569 42.6704 52.2939 43.5654C52.2219 43.6792 52.1737 43.8091 52.1564 43.9491C51.4593 45.6646 49.7754 46.8779 47.8125 46.8779ZM58.125 42.1904C58.125 42.7073 57.7044 43.1279 57.1875 43.1279H54.3069C54.3975 42.4976 54.3976 41.8844 54.3069 41.2529H58.125V42.1904Z" fill="#FF7802"/>
<path d="M41.25 30.0029H47.8125C48.4515 30.0029 48.9042 29.3757 48.7018 28.7689L46.8268 23.1439C46.6992 22.7611 46.341 22.5029 45.9375 22.5029H41.25C40.7323 22.5029 40.3125 22.9227 40.3125 23.4404V29.0654C40.3125 29.5831 40.7323 30.0029 41.25 30.0029ZM42.1875 24.3779H45.2618L46.5118 28.1279H42.1875V24.3779Z" fill="#FF7802"/>
<path d="M43.125 31.8779H41.25C40.7323 31.8779 40.3125 32.2977 40.3125 32.8154C40.3125 33.3332 40.7323 33.7529 41.25 33.7529H43.125C43.6427 33.7529 44.0625 33.3332 44.0625 32.8154C44.0625 32.2977 43.6427 31.8779 43.125 31.8779Z" fill="#FF7802"/>
</svg>
