<svg width="49" height="49" viewBox="0 0 49 49" fill="none" xmlns="http://www.w3.org/2000/svg">
<g clip-path="url(#clip0)">
<path d="M16.751 32.3493C17.1252 32.7228 17.7312 32.7228 18.1043 32.3493C18.4785 31.9751 18.4785 31.3695 18.1043 30.996C17.7312 30.6218 17.1252 30.6218 16.751 30.996C16.3779 31.3695 16.3779 31.9751 16.751 32.3493Z" fill="#FF7802"/>
<path d="M20.8125 29.6418L29.9705 20.4778C30.3439 20.104 30.3439 19.498 29.9701 19.1242C29.5959 18.7507 28.9903 18.7511 28.6164 19.1245L19.4584 28.2885C19.0846 28.6623 19.0849 29.2683 19.4588 29.6422C19.8326 30.0156 20.4386 30.0156 20.8125 29.6418Z" fill="#FF7802"/>
<path d="M15.0752 25.9047L6.83232 34.1476C6.74073 34.2391 6.66447 34.3543 6.6155 34.4833C6.614 34.4863 6.61251 34.4892 6.61138 34.4922C5.85024 36.5506 3.54103 42.7945 2.63259 45.2506C2.50324 45.6013 2.5896 45.9957 2.85428 46.2596C3.11672 46.5221 3.51074 46.6107 3.86365 46.4798C6.24427 45.5957 12.545 43.2554 14.6093 42.4887C14.7297 42.4442 14.8553 42.3661 14.9529 42.2685L23.195 34.0264L37.8903 48.8051C38.0701 48.9857 38.3142 49.0874 38.5692 49.0874H38.57C38.8249 49.087 39.0694 48.9849 39.2488 48.804L48.7227 39.2419C49.0936 38.8677 49.0921 38.2643 48.7197 37.8916C47.9893 37.1611 34.605 23.7761 34.0252 23.1962C36.5243 20.6971 42.548 14.6734 44.8453 12.3762C47.0898 10.1342 47.0913 6.49825 44.8456 4.2552C42.6022 2.01066 38.9696 2.01029 36.7247 4.2552L25.9035 15.0764C25.3487 14.5216 12.0396 1.21214 11.2033 0.376227C10.8309 0.00350749 10.2276 0.00201213 9.85334 0.372863L0.283747 9.84563C0.102433 10.0251 0.000374868 10.2696 1.02718e-06 10.5249C-0.000372814 10.7799 0.101312 11.0247 0.282251 11.2045L15.0752 25.9047ZM26.5801 17.1067C26.5801 17.1067 26.5801 17.1067 26.5805 17.1064C26.5805 17.1064 26.5805 17.1064 26.5805 17.106L32.5485 11.1384L37.9621 16.5523L31.9952 22.5188C31.9952 22.5192 31.9952 22.5192 31.9948 22.5192V22.5196L14.2763 40.2382L8.86266 34.8242L26.5801 17.1067ZM35.9325 7.75436L41.3461 13.1683L39.3158 15.1987L33.9018 9.78506L35.9325 7.75436ZM8.5976 42.6797L6.42708 40.5092L7.88843 36.5573L12.545 41.2139L8.5976 42.6797ZM5.69622 42.4853L6.62372 43.4128L5.15079 43.9598L5.69622 42.4853ZM34.8917 26.7698L30.7911 30.8697C30.4172 31.2432 30.4172 31.8492 30.7911 32.223C31.1645 32.5969 31.7705 32.5969 32.1444 32.2234L36.245 28.1235L39.1434 31.0219L36.3964 33.7685C36.023 34.1423 36.023 34.7483 36.3964 35.1222C36.7703 35.496 37.3763 35.4956 37.7501 35.1222L40.4971 32.3752L43.3959 35.2743L39.2956 39.3742C38.9217 39.7477 38.9217 40.3537 39.2956 40.7275C39.669 41.1014 40.275 41.1014 40.6489 40.7275L44.7495 36.628L46.6928 38.5716C38.6115 46.6458 38.5681 46.7718 38.5681 46.7718L24.5487 32.6727L32.6719 24.5496L34.8917 26.7698ZM43.4923 5.60888C44.9884 7.10313 44.9892 9.52674 43.4919 11.0225L42.6998 11.8146L37.2858 6.40105L38.0784 5.60851C39.5741 4.1124 41.9958 4.11128 43.4923 5.60888ZM12.6586 4.53858L8.55872 8.63737C8.18526 9.01084 8.18526 9.61684 8.55872 9.99068C8.93256 10.3645 9.53856 10.3645 9.9124 9.99105L14.0123 5.89188L16.9107 8.79065L14.1645 11.5361C13.7906 11.91 13.7906 12.516 14.1641 12.8898C14.5379 13.2633 15.1436 13.2637 15.5178 12.8898L18.2644 10.144L20.9699 12.8498L16.8707 16.9494C16.4972 17.3232 16.4972 17.9292 16.8707 18.303C17.2446 18.6765 17.8505 18.6769 18.2244 18.3027L22.3236 14.2031L24.5502 16.4297L16.4285 24.5514L2.31595 10.5271C2.31595 10.5271 2.44866 10.4838 10.5233 2.40282L12.6586 4.53858Z" fill="#FF7802"/>
</g>
<defs>
<clipPath id="clip0">
<rect width="49" height="49" fill="white"/>
</clipPath>
</defs>
</svg>
