<svg width="20" height="20" viewBox="0 0 20 20" fill="none" xmlns="http://www.w3.org/2000/svg">
<path d="M8.0733 10.0042L15.5552 2.52195C15.7613 2.31642 15.8746 2.04163 15.8746 1.74862C15.8746 1.45545 15.7613 1.18081 15.5552 0.974959L14.8996 0.319675C14.6939 0.113496 14.419 0 14.126 0C13.833 0 13.5583 0.113496 13.3525 0.319675L4.44403 9.22797C4.23736 9.43447 4.12419 9.71041 4.125 10.0037C4.12419 10.2984 4.2372 10.574 4.44403 10.7807L13.3442 19.6803C13.55 19.8865 13.8247 20 14.1178 20C14.4109 20 14.6855 19.8865 14.8915 19.6803L15.547 19.025C15.9735 18.5985 15.9735 17.9042 15.547 17.4779L8.0733 10.0042Z" fill="#818181"/>
</svg>
