<svg width="20" height="20" viewBox="0 0 20 20" fill="none" xmlns="http://www.w3.org/2000/svg">
<path d="M17.1248 3.40771H2.83908C1.60652 3.40813 0.607492 4.4073 0.606934 5.63986V13.9745C0.607492 15.2071 1.60652 16.2064 2.83908 16.2067H17.1248C18.3574 16.2064 19.3564 15.2071 19.3569 13.9745V5.63986C19.3564 4.4073 18.3574 3.40813 17.1248 3.40771ZM2.83908 4.30057H17.1248C17.7678 4.30225 18.3195 4.75858 18.4418 5.38972L9.98193 10.1041L1.52211 5.38972C1.64432 4.75858 2.19608 4.30225 2.83908 4.30057ZM17.1248 15.3095H2.83908C2.10038 15.3073 1.50188 14.7089 1.49979 13.9702V6.39879L9.76318 11.0058C9.83015 11.0426 9.90534 11.0627 9.98193 11.064C10.0588 11.0648 10.1343 11.0447 10.2007 11.0058L18.4641 6.39879V13.9702C18.4635 14.7096 17.8642 15.3088 17.1248 15.3095Z" fill="#FF7802"/>
</svg>
