<svg width="20" height="20" viewBox="0 0 20 20" fill="none" xmlns="http://www.w3.org/2000/svg">
<g clip-path="url(#clip0)">
<path d="M4.0752 13.2947C6.04785 15.6527 8.42249 17.5093 11.1328 18.823C12.1647 19.3121 13.5447 19.8923 15.0822 19.9917C15.1776 19.9959 15.2687 20 15.3641 20C16.396 20 17.2248 19.6436 17.9003 18.9101C17.9045 18.9059 17.9127 18.8976 17.9169 18.8893C18.1573 18.5993 18.4308 18.3382 18.7167 18.0605C18.9115 17.874 19.1104 17.6792 19.3011 17.4803C20.1838 16.5603 20.1838 15.3916 19.2928 14.5006L16.8021 12.0099C16.3794 11.5707 15.8738 11.3386 15.3433 11.3386C14.8129 11.3386 14.3031 11.5707 13.868 12.0058L12.3844 13.4894C12.2476 13.4107 12.1067 13.3402 11.9741 13.2739C11.8083 13.191 11.655 13.1123 11.5182 13.0253C10.1672 12.1674 8.94051 11.0485 7.7677 9.61044C7.17508 8.86034 6.77723 8.23042 6.49957 7.58807C6.88913 7.23581 7.25382 6.86697 7.60608 6.50642C7.7304 6.37795 7.85887 6.24948 7.98734 6.12101C8.43492 5.67344 8.67528 5.15541 8.67528 4.62909C8.67528 4.10278 8.43906 3.58475 7.98734 3.13717L6.75237 1.9022C6.60732 1.75715 6.47056 1.61625 6.32966 1.4712C6.05614 1.18939 5.77019 0.899296 5.48838 0.63821C5.06153 0.219644 4.56008 0 4.02962 0C3.5033 0 2.9977 0.219644 2.55427 0.642354L1.00434 2.19229C0.440722 2.75591 0.121617 3.4397 0.0553097 4.23125C-0.0234305 5.22172 0.158915 6.27435 0.631356 7.54662C1.35659 9.51513 2.45067 11.3427 4.0752 13.2947ZM1.0665 4.31828C1.11623 3.76709 1.32758 3.30709 1.72543 2.90924L3.26708 1.36759C3.50744 1.13552 3.77267 1.01533 4.02962 1.01533C4.28241 1.01533 4.53935 1.13552 4.77557 1.37588C5.05324 1.63282 5.31432 1.9022 5.59613 2.18815C5.73703 2.3332 5.88208 2.47824 6.02713 2.62743L7.26211 3.86241C7.51905 4.11935 7.65166 4.38044 7.65166 4.63738C7.65166 4.89432 7.51905 5.15541 7.26211 5.41235C7.13364 5.54082 7.00516 5.67344 6.87669 5.80191C6.49128 6.19146 6.13073 6.5603 5.73289 6.91256C5.7246 6.92085 5.72046 6.92499 5.71217 6.93328C5.3682 7.27725 5.42207 7.60464 5.50496 7.85329C5.5091 7.86573 5.51325 7.87402 5.51739 7.88645C5.83649 8.65313 6.27993 9.38251 6.97201 10.2528C8.21528 11.7862 9.52485 12.9755 10.967 13.8914C11.1452 14.0075 11.3359 14.0986 11.5141 14.1898C11.6798 14.2727 11.8332 14.3514 11.9699 14.4385C11.9865 14.4467 11.9989 14.455 12.0155 14.4633C12.1523 14.5338 12.2849 14.5669 12.4175 14.5669C12.7491 14.5669 12.9646 14.3556 13.035 14.2851L14.5849 12.7352C14.8253 12.4948 15.0864 12.3663 15.3433 12.3663C15.6583 12.3663 15.9152 12.5611 16.0769 12.7352L18.5758 15.23C19.0731 15.7273 19.069 16.2661 18.5634 16.7924C18.3893 16.9789 18.207 17.1571 18.0122 17.3436C17.7221 17.6254 17.4196 17.9155 17.1461 18.2429C16.6695 18.7567 16.1017 18.9971 15.3682 18.9971C15.2977 18.9971 15.2231 18.993 15.1527 18.9888C13.7934 18.9018 12.5294 18.3713 11.5804 17.9196C9.00268 16.6722 6.73993 14.9026 4.8626 12.6564C3.31681 10.7957 2.27661 9.06341 1.58867 7.2068C1.16182 6.06714 1.00019 5.15126 1.0665 4.31828Z" fill="#FF7802"/>
</g>
<defs>
<clipPath id="clip0">
<rect width="20" height="20" fill="white"/>
</clipPath>
</defs>
</svg>
