<svg width="28" height="28" viewBox="0 0 28 28" fill="none" xmlns="http://www.w3.org/2000/svg">
<g clip-path="url(#clip0)">
<path d="M5.70538 18.6125C8.46709 21.9138 11.7916 24.5131 15.586 26.3523C17.0307 27.0369 18.9627 27.8491 21.1152 27.9884C21.2487 27.9942 21.3763 28 21.5098 28C22.9544 28 24.1148 27.501 25.0605 26.4741C25.0663 26.4683 25.0779 26.4567 25.0837 26.4451C25.4203 26.039 25.8032 25.6734 26.2035 25.2847C26.4762 25.0236 26.7547 24.7509 27.0216 24.4724C28.2574 23.1844 28.2574 21.5483 27.01 20.3009L23.523 16.8139C22.9312 16.1989 22.2234 15.874 21.4808 15.874C20.7381 15.874 20.0245 16.1989 19.4153 16.8081L17.3382 18.8852C17.1467 18.775 16.9495 18.6763 16.7638 18.5835C16.5317 18.4675 16.3171 18.3572 16.1256 18.2354C14.2342 17.0344 12.5168 15.4679 10.8749 13.4546C10.0452 12.4045 9.48822 11.5226 9.0995 10.6233C9.64487 10.1301 10.1554 9.61376 10.6486 9.10899C10.8227 8.92913 11.0025 8.74927 11.1824 8.56942C11.809 7.94281 12.1455 7.21757 12.1455 6.48073C12.1455 5.74389 11.8148 5.01865 11.1824 4.39204L9.45341 2.66308C9.25034 2.46001 9.05888 2.26274 8.86162 2.05968C8.47869 1.66515 8.07836 1.25901 7.68383 0.893494C7.08623 0.307501 6.3842 0 5.64156 0C4.90472 0 4.19688 0.307501 3.57608 0.899296L1.40617 3.06921C0.617109 3.85827 0.170362 4.81558 0.0775312 5.92375C-0.032705 7.3104 0.222579 8.78409 0.883996 10.5653C1.89933 13.3212 3.43103 15.8798 5.70538 18.6125ZM1.4932 6.04559C1.56282 5.27393 1.85872 4.62992 2.4157 4.07294L4.57401 1.91463C4.91052 1.58972 5.28184 1.42147 5.64156 1.42147C5.99548 1.42147 6.35519 1.58972 6.6859 1.92623C7.07463 2.28595 7.44015 2.66307 7.83468 3.06341C8.03194 3.26647 8.23501 3.46954 8.43808 3.67841L10.167 5.40738C10.5268 5.76709 10.7124 6.13262 10.7124 6.49233C10.7124 6.85205 10.5268 7.21757 10.167 7.57729C9.98719 7.75715 9.80733 7.94281 9.62747 8.12267C9.08789 8.66805 8.58313 9.18442 8.02614 9.67758C8.01454 9.68918 8.00874 9.69499 7.99713 9.70659C7.51558 10.1881 7.591 10.6465 7.70704 10.9946C7.71284 11.012 7.71864 11.0236 7.72444 11.041C8.17119 12.1144 8.79199 13.1355 9.76091 14.3539C11.5015 16.5006 13.3349 18.1658 15.3539 19.448C15.6034 19.6104 15.8703 19.7381 16.1198 19.8657C16.3519 19.9818 16.5665 20.092 16.758 20.2138C16.7812 20.2254 16.7986 20.237 16.8218 20.2487C17.0133 20.3473 17.199 20.3937 17.3846 20.3937C17.8488 20.3937 18.1505 20.0978 18.2491 19.9992L20.419 17.8293C20.7555 17.4927 21.121 17.3129 21.4808 17.3129C21.9217 17.3129 22.2814 17.5856 22.5077 17.8293L26.0063 21.322C26.7025 22.0182 26.6967 22.7725 25.9888 23.5093C25.7452 23.7704 25.4899 24.0199 25.2172 24.281C24.8111 24.6755 24.3875 25.0816 24.0046 25.54C23.3374 26.2594 22.5425 26.5959 21.5156 26.5959C21.4169 26.5959 21.3125 26.5901 21.2139 26.5843C19.3109 26.4625 17.5413 25.7199 16.2126 25.0874C12.6038 23.3411 9.43601 20.8637 6.80774 17.719C4.64363 15.114 3.18735 12.6888 2.22424 10.0895C1.62664 8.49399 1.40037 7.21177 1.4932 6.04559Z" fill="#FF7802"/>
</g>
<defs>
<clipPath id="clip0">
<rect width="28" height="28" fill="white"/>
</clipPath>
</defs>
</svg>
