<svg width="49" height="49" viewBox="0 0 49 49" fill="none" xmlns="http://www.w3.org/2000/svg">
<g clip-path="url(#clip0)">
<path d="M48.2127 0.787539C47.2344 -0.191175 45.5689 -0.259588 43.5225 0.594638C41.9782 1.23951 40.3067 2.36328 38.7441 3.79845C38.66 3.71434 38.5773 3.6291 38.4921 3.54648C38.3037 3.36293 38.054 3.26012 37.79 3.26311L23.5572 3.5633C23.3097 3.56854 23.0734 3.66947 22.8981 3.84443L17.9739 8.76866C17.5989 9.14399 17.5989 9.7526 17.9739 10.1276C18.3492 10.5029 18.9574 10.5029 19.3328 10.1276L23.9841 5.47662L37.3519 5.19437C36.1803 6.47589 35.2199 7.82845 34.56 9.12381C33.191 9.12081 31.8209 9.64008 30.7786 10.6823C29.7719 11.6891 29.2171 13.0282 29.2171 14.4522C29.2171 15.8761 29.7715 17.2148 30.7786 18.2216C31.7854 19.2287 33.1245 19.7831 34.5485 19.7831C35.9724 19.7831 37.3111 19.2287 38.3183 18.2216C39.325 17.2148 39.8794 15.8761 39.8794 14.4522C39.8794 14.2148 39.8626 13.98 39.8323 13.749C39.8319 13.7456 39.8316 13.7422 39.8312 13.7389C39.6779 12.5852 39.1549 11.519 38.3183 10.6823C37.7926 10.1571 37.184 9.76494 36.5347 9.50512C37.0939 8.5208 37.8483 7.50134 38.7456 6.51776L43.8074 11.5796L43.524 25.0165L21.8596 46.6806L2.31968 27.1407L13.8635 15.5968C14.2388 15.2215 14.2388 14.6133 13.8635 14.2379C13.4882 13.8626 12.8803 13.8626 12.5046 14.2379L0.281502 26.4614C0.101311 26.6416 0 26.8857 0 27.1407C0 27.3956 0.101311 27.6397 0.281502 27.8199L21.1803 48.7187C21.368 48.9064 21.6136 49.0002 21.8596 49.0002C22.1056 49.0002 22.3515 48.9064 22.5392 48.7187L45.1558 26.1021C45.3308 25.9268 45.4317 25.6905 45.4369 25.4427L45.7375 11.2098C45.7427 10.9481 45.641 10.6954 45.456 10.5104L45.2018 10.2562C46.637 8.69351 47.7607 7.02207 48.4056 5.47774C49.2598 3.43171 49.1914 1.76588 48.2127 0.787539ZM34.5481 17.8616C33.6374 17.8616 32.7813 17.5068 32.1372 16.8627C31.4934 16.2189 31.1387 15.3625 31.1387 14.4518C31.1387 13.5411 31.4931 12.685 32.1372 12.0409C32.6049 11.5732 33.1757 11.2711 33.7768 11.1324C33.3944 12.6293 33.5944 13.8462 34.3742 14.626C34.8995 15.1512 35.6191 15.4144 36.4891 15.4144C36.9149 15.4144 37.3773 15.3494 37.8697 15.2234C37.728 15.8391 37.4169 16.4047 36.9594 16.8627C36.3152 17.5068 35.4591 17.8616 34.5481 17.8616ZM37.7444 13.2611C36.6382 13.6215 35.9776 13.5119 35.7332 13.2671C35.4259 12.9598 35.4363 12.2009 35.7395 11.2584C36.1848 11.4237 36.602 11.6839 36.9594 12.0409C37.3111 12.3927 37.5758 12.8084 37.7444 13.2611ZM46.6321 4.73754C46.0788 6.06243 45.1008 7.5148 43.8414 8.89576L40.1045 5.15848C41.4854 3.89901 42.9374 2.92105 44.2627 2.36776C45.4683 1.86457 46.4855 1.77747 46.8538 2.14608C47.2228 2.51468 47.1357 3.5319 46.6321 4.73754Z" fill="#FF7802"/>
<path d="M15.0321 12.5489C15.1868 12.9231 15.5753 13.1669 15.9794 13.1407C16.3641 13.116 16.7046 12.8551 16.8287 12.4902C16.9566 12.1153 16.8343 11.691 16.5285 11.4394C16.21 11.1773 15.7454 11.1504 15.3988 11.3739C15.0145 11.6222 14.8571 12.1257 15.0321 12.5489Z" fill="#FF7802"/>
</g>
<defs>
<clipPath id="clip0">
<rect width="49" height="49" fill="white"/>
</clipPath>
</defs>
</svg>
