<svg width="20" height="20" viewBox="0 0 20 20" fill="none" xmlns="http://www.w3.org/2000/svg">
<path d="M11.9267 10.0042L4.44475 2.52195C4.23874 2.31642 4.1254 2.04163 4.1254 1.74862C4.1254 1.45545 4.23874 1.18081 4.44475 0.974959L5.10036 0.319675C5.30605 0.113496 5.58101 0 5.87402 0C6.16703 0 6.44166 0.113496 6.64752 0.319675L15.556 9.22797C15.7626 9.43447 15.8758 9.71041 15.875 10.0037C15.8758 10.2984 15.7628 10.574 15.556 10.7807L6.65581 19.6803C6.44995 19.8865 6.17532 20 5.88215 20C5.58914 20 5.31451 19.8865 5.10849 19.6803L4.45304 19.025C4.02654 18.5985 4.02654 17.9042 4.45304 17.4779L11.9267 10.0042Z" fill="#818181"/>
</svg>
