<svg width="19" height="18" viewBox="0 0 19 18" fill="none" xmlns="http://www.w3.org/2000/svg">
<path d="M18.0893 16.3951L13.6811 11.9395C14.8145 10.6301 15.4355 8.98262 15.4355 7.26749C15.4355 3.26026 12.0807 0 7.95727 0C3.83382 0 0.479004 3.26026 0.479004 7.26749C0.479004 11.2747 3.83382 14.535 7.95727 14.535C9.50527 14.535 10.9804 14.0812 12.2417 13.2199L16.6834 17.7093C16.8691 17.8967 17.1188 18 17.3864 18C17.6397 18 17.88 17.9062 18.0624 17.7355C18.4499 17.3731 18.4623 16.7721 18.0893 16.3951ZM7.95727 1.89587C11.0052 1.89587 13.4847 4.30552 13.4847 7.26749C13.4847 10.2295 11.0052 12.6391 7.95727 12.6391C4.90939 12.6391 2.42986 10.2295 2.42986 7.26749C2.42986 4.30552 4.90939 1.89587 7.95727 1.89587Z" fill="white"/>
</svg>
