<svg width="14" height="14" viewBox="0 0 14 14" fill="none" xmlns="http://www.w3.org/2000/svg">
<path d="M7.00018 7.88562C2.79369 7.88562 0.477051 9.8756 0.477051 13.4891C0.477051 13.7713 0.705781 14 0.987996 14H13.0123C13.2945 14 13.5233 13.7713 13.5233 13.4891C13.5233 9.87579 11.2067 7.88562 7.00018 7.88562ZM1.51754 12.9781C1.71851 10.2764 3.56047 8.90754 7.00018 8.90754C10.4399 8.90754 12.2819 10.2764 12.483 12.9781H1.51754Z" fill="#FF7802"/>
<path d="M7.00013 0C5.06788 0 3.61084 1.48635 3.61084 3.45726C3.61084 5.48589 5.13127 7.13609 7.00013 7.13609C8.869 7.13609 10.3894 5.48589 10.3894 3.45743C10.3894 1.48635 8.93238 0 7.00013 0ZM7.00013 6.11436C5.69466 6.11436 4.63273 4.92248 4.63273 3.45743C4.63273 2.04619 5.6284 1.02189 7.00013 1.02189C8.34991 1.02189 9.36753 2.06883 9.36753 3.45743C9.36753 4.92248 8.30561 6.11436 7.00013 6.11436Z" fill="#FF7802"/>
</svg>
