<svg width="49" height="49" viewBox="0 0 49 49" fill="none" xmlns="http://www.w3.org/2000/svg">
<path d="M46.1289 26.4131H45.1719V19.7139C45.1719 17.0729 43.3173 14.8583 40.8425 14.3002L36.4865 6.75552C35.8482 5.64986 34.8175 4.85887 33.5841 4.52841C32.7133 4.29518 31.8155 4.31231 30.9735 4.5665L27.8061 1.39901C25.9422 -0.464614 22.91 -0.464806 21.0462 1.39901L8.28224 14.1631H5.55078C2.4901 14.1631 0 16.6532 0 19.7139V43.4483C0 46.509 2.4901 48.9991 5.55078 48.9991H18.2793C18.8078 48.9991 19.2363 48.5705 19.2363 48.042C19.2363 47.5136 18.8078 47.085 18.2793 47.085H5.55078C3.54551 47.085 1.91406 45.4536 1.91406 43.4483V19.7139C1.91406 17.7086 3.54551 16.0772 5.55078 16.0772H39.6211C41.6264 16.0772 43.2578 17.7086 43.2578 19.7139V26.4131H36.1758C33.3262 26.4131 31.0078 28.7315 31.0078 31.5811C31.0078 34.4307 33.3262 36.7491 36.1758 36.7491H43.2578V43.4483C43.2578 45.4536 41.6264 47.085 39.6211 47.085H26.8926C26.3641 47.085 25.9355 47.5136 25.9355 48.042C25.9355 48.5705 26.3641 48.9991 26.8926 48.9991H39.6211C42.6818 48.9991 45.1719 46.509 45.1719 43.4483V36.7491H46.1289C47.712 36.7491 49 35.4611 49 33.878V29.2842C49 27.7012 47.712 26.4131 46.1289 26.4131ZM33.0888 6.3773C33.8282 6.5754 34.4462 7.04961 34.829 7.71255L38.5532 14.1631H17.9245L30.9141 6.66355C31.577 6.28093 32.3491 6.1791 33.0888 6.3773ZM22.3997 2.75254C22.9409 2.21125 23.6607 1.91313 24.4261 1.91313C25.1916 1.91313 25.9114 2.21125 26.4526 2.75254L29.164 5.46391L14.0965 14.1631H10.9892L22.3997 2.75254ZM47.0859 33.878C47.0859 34.4057 46.6566 34.835 46.1289 34.835H36.1758C34.3815 34.835 32.9219 33.3753 32.9219 31.5811C32.9219 29.7869 34.3815 28.3272 36.1758 28.3272H46.1289C46.6566 28.3272 47.0859 28.7565 47.0859 29.2842V33.878Z" fill="#FF7802"/>
<path d="M36.0161 30.6238C35.7644 30.6238 35.5175 30.7261 35.3395 30.9042C35.1615 31.0823 35.0591 31.3282 35.0591 31.5808C35.0591 31.8325 35.1614 32.0794 35.3395 32.2573C35.5175 32.4353 35.7644 32.5378 36.0161 32.5378C36.2688 32.5378 36.5147 32.4354 36.6926 32.2573C36.8716 32.0794 36.9731 31.8325 36.9731 31.5808C36.9731 31.3291 36.8716 31.0822 36.6926 30.9042C36.5147 30.7262 36.2688 30.6238 36.0161 30.6238Z" fill="#FF7802"/>
<path d="M22.5859 47.0847C22.3342 47.0847 22.0873 47.187 21.9093 47.3651C21.7313 47.5432 21.6289 47.79 21.6289 48.0417C21.6289 48.2934 21.7312 48.5404 21.9093 48.7183C22.0873 48.8963 22.3342 48.9988 22.5859 48.9988C22.8376 48.9988 23.0846 48.8964 23.2625 48.7183C23.4405 48.5404 23.543 48.2934 23.543 48.0417C23.543 47.79 23.4406 47.5431 23.2625 47.3651C23.0846 47.1871 22.8376 47.0847 22.5859 47.0847Z" fill="#FF7802"/>
</svg>
